<svg width="1280" height="284" viewBox="0 0 1280 284" fill="none" xmlns="http://www.w3.org/2000/svg">
<path d="M1750 256.335L1710.17 267.049C1670.33 277.362 1590.67 299.391 1511 267.049C1431.33 235.307 1351.67 149.195 1272 112.146C1192.33 75.0981 1112.67 85.1112 1033 117.453C953.333 149.195 873.667 203.266 794 213.579C714.333 224.293 634.667 192.251 555 160.209C475.333 128.167 395.667 96.1256 316 85.4116C236.333 75.0981 156.667 85.1112 77 117.453C-2.66663 149.195 -82.3333 203.266 -122.167 229.6L-162 256.335V0H-122.167C-82.3333 0 -2.66663 0 77 0C156.667 0 236.333 0 316 0C395.667 0 475.333 0 555 0C634.667 0 714.333 0 794 0C873.667 0 953.333 0 1033 0C1112.67 0 1192.33 0 1272 0C1351.67 0 1431.33 0 1511 0C1590.67 0 1670.33 0 1710.17 0H1750V256.335Z" fill="#323232"/>
</svg>
