<svg width="1280" height="339" viewBox="0 0 1280 339" fill="none" xmlns="http://www.w3.org/2000/svg">
<path d="M-573.353 31.2158L-525.333 19.0743C-477.321 7.41363 -381.271 -17.5908 -286.206 22.6848C-191.13 62.2391 -97.0405 167.073 -2.06111 212.999C92.9183 258.925 188.751 248.348 284.988 210.96C381.214 174.294 477.846 110.819 573.684 99.8808C669.529 88.4613 764.599 128.376 859.669 168.291C954.739 208.206 1049.81 248.121 1145.27 262.429C1240.73 276.256 1336.56 265.678 1432.8 228.291C1529.03 191.625 1625.66 128.15 1673.96 97.2538L1722.27 65.8769L1717.62 373.643L1669.8 372.921C1621.97 372.199 1526.32 370.754 1430.67 369.31C1335.02 367.866 1239.37 366.422 1143.72 364.978C1048.07 363.533 952.416 362.089 856.765 360.645C761.114 359.201 665.463 357.756 569.812 356.312C474.161 354.868 378.51 353.424 282.859 351.98C187.208 350.535 91.5569 349.091 -4.09412 347.647C-99.7451 346.203 -195.396 344.759 -291.047 343.314C-386.698 341.87 -482.349 340.426 -530.175 339.704L-578 338.982L-573.353 31.2158Z" fill="#323232"/>
</svg>
