<svg width="1280" height="320" viewBox="0 0 1280 320" fill="none" xmlns="http://www.w3.org/2000/svg">
<path id="Vector" d="M-80 128L-50 117.3C-20 107 40 85 100 112C160 139 220 213 280 208C340 203 400 117 460 90.7C520 64 580 96 640 133.3C700 171 760 213 820 218.7C880 224 940 192 1000 176C1060 160 1120 160 1180 133.3C1240 107 1300 53 1330 26.7L1360 0V320H1330C1300 320 1240 320 1180 320C1120 320 1060 320 1000 320C940 320 880 320 820 320C760 320 700 320 640 320C580 320 520 320 460 320C400 320 340 320 280 320C220 320 160 320 100 320C40 320 -20 320 -50 320H-80V128Z" fill="#282828"/>
</svg>
