<svg width="409" height="17" viewBox="0 0 409 17" fill="none" xmlns="http://www.w3.org/2000/svg">
<path d="M4 6.05899C6.79707 4.98253 13.331 3.15254 17.0903 4.44429C21.7894 6.05899 25.4815 12.8407 30.3484 12.6793C35.2153 12.5178 33.8727 4.9287 43.103 6.05899C52.3333 7.18928 52.3333 14.6169 58.2072 12.6793C64.081 10.7416 70.1227 4.28282 75.8287 6.05899C81.5347 7.83516 83.8843 12.8407 95.9676 11.549C108.051 10.2572 104.527 4.28282 113.421 6.05899C122.316 7.83516 117.953 11.3875 126.512 10.2572C135.071 9.12692 133.392 4.60576 139.098 6.05899C143.663 7.22158 151.601 10.585 153 11.5" stroke="white" stroke-width="8" stroke-linecap="round"/>
<path d="M123.5 10.5C126.297 9.42354 135.741 4.70824 139.5 6C144.199 7.6147 153.482 12.8407 158.348 12.6792C163.215 12.5178 161.873 4.92869 171.103 6.05898C180.333 7.18928 180.333 14.6169 186.207 12.6792C192.081 10.7416 198.123 4.28281 203.829 6.05898C209.535 7.83515 211.884 12.8407 223.968 11.549C236.051 10.2572 232.527 4.28281 241.421 6.05898C250.316 7.83515 245.953 11.3875 254.512 10.2572C263.071 9.12691 261.392 4.60575 267.098 6.05898C271.663 7.22157 275.601 9.3422 277 10.2572" stroke="white" stroke-width="8" stroke-linecap="round"/>
<path d="M251.5 10.5C254.297 9.42354 263.741 4.70824 267.5 6C272.199 7.6147 281.482 12.8407 286.348 12.6792C291.215 12.5178 289.873 4.92869 299.103 6.05898C308.333 7.18928 308.333 14.6169 314.207 12.6792C320.081 10.7416 326.123 4.28281 331.829 6.05898C337.535 7.83515 339.884 12.8407 351.968 11.549C364.051 10.2572 360.527 4.28281 369.421 6.05898C378.316 7.83515 373.953 11.3875 382.512 10.2572C391.071 9.12691 389.392 4.60575 395.098 6.05898C399.663 7.22157 403.601 9.3422 405 10.2572" stroke="white" stroke-width="8" stroke-linecap="round"/>
</svg>
