<svg width="1280" height="224" viewBox="0 0 1280 224" fill="none" xmlns="http://www.w3.org/2000/svg">
<g clip-path="url(#clip0_399:4)">
<path d="M1306 112H1276C1246 112 1186 112 1126 115.71C1066 119.7 1006 126.7 946 119.49C886 112 826 89.6 766 89.6C706 89.6 646 112 586 119.49C526 126.7 466 119.7 406 108.29C346 97.3 286 81.9 226 82.11C166 81.9 106 97.3 46 112C-14 126.7 -74 142.1 -104 149.31L-134 156.8V3.8147e-06H-104C-74 3.8147e-06 -14 3.8147e-06 46 3.8147e-06C106 3.8147e-06 166 3.8147e-06 226 3.8147e-06C286 3.8147e-06 346 3.8147e-06 406 3.8147e-06C466 3.8147e-06 526 3.8147e-06 586 3.8147e-06C646 3.8147e-06 706 3.8147e-06 766 3.8147e-06C826 3.8147e-06 886 3.8147e-06 946 3.8147e-06C1006 3.8147e-06 1066 3.8147e-06 1126 3.8147e-06C1186 3.8147e-06 1246 3.8147e-06 1276 3.8147e-06H1306V112Z" fill="#323232"/>
</g>
<defs>
<clipPath id="clip0_399:4">
<rect width="1440" height="224" fill="white" transform="translate(1306 224) rotate(-180)"/>
</clipPath>
</defs>
</svg>
