<svg width="1280" height="182" viewBox="0 0 1280 182" fill="none" xmlns="http://www.w3.org/2000/svg">
<g clip-path="url(#clip0_396:34)">
<path d="M-44.5818 127.401L-14.5818 121.315C15.4182 115.457 75.4182 102.944 135.418 118.301C195.418 133.657 255.418 175.744 315.418 172.901C375.418 170.057 435.418 121.144 495.418 106.186C555.418 91.0006 615.418 109.201 675.418 130.415C735.418 151.857 795.418 175.744 855.418 178.986C915.418 182.001 975.418 163.801 1035.42 154.701C1095.42 145.601 1155.42 145.601 1215.42 130.415C1275.42 115.457 1335.42 84.7443 1365.42 69.7862L1395.42 54.6006V236.601H1365.42C1335.42 236.601 1275.42 236.601 1215.42 236.601C1155.42 236.601 1095.42 236.601 1035.42 236.601C975.418 236.601 915.418 236.601 855.418 236.601C795.418 236.601 735.418 236.601 675.418 236.601C615.418 236.601 555.418 236.601 495.418 236.601C435.418 236.601 375.418 236.601 315.418 236.601C255.418 236.601 195.418 236.601 135.418 236.601C75.4182 236.601 15.4182 236.601 -14.5818 236.601H-44.5818V127.401Z" fill="black"/>
</g>
<defs>
<clipPath id="clip0_396:34">
<rect width="1440" height="182" fill="white" transform="translate(-44.5818 0.000488281)"/>
</clipPath>
</defs>
</svg>
